<?xml version="1.0" encoding="utf-8"?>
<!-- Generator: Adobe Illustrator 17.0.2, SVG Export Plug-In . SVG Version: 6.00 Build 0)  -->
<!DOCTYPE svg PUBLIC "-//W3C//DTD SVG 1.1//EN" "http://www.w3.org/Graphics/SVG/1.1/DTD/svg11.dtd">
<svg version="1.1" id="Layer_1" xmlns="http://www.w3.org/2000/svg" xmlns:xlink="http://www.w3.org/1999/xlink" x="0px" y="0px"
	 width="54px" height="54px" viewBox="0 0 54 54" enable-background="new 0 0 54 54" xml:space="preserve">
<path id="settings" fill="#B8B8B8" d="M28.387,3c0.747,0,1.387,0.258,1.92,0.773c0.533,0.516,0.8,1.147,0.8,1.893v4.587
	c1.6,0.392,3.075,0.996,4.427,1.813l3.893-2.507c0.533-0.533,1.182-0.8,1.947-0.8c0.764,0,1.395,0.267,1.893,0.8l1.973,1.92
	c0.533,0.498,0.8,1.112,0.8,1.84c0,0.729-0.267,1.36-0.8,1.893l-2.667,3.84c0.888,1.493,1.493,3.04,1.813,4.64h3.893
	c0.355,0,0.702,0.072,1.04,0.213c0.337,0.142,0.631,0.329,0.88,0.56c0.248,0.232,0.444,0.507,0.587,0.827
	C50.928,25.613,51,25.969,51,26.36v2.667c0,0.712-0.267,1.333-0.8,1.867c-0.533,0.533-1.173,0.8-1.92,0.8h-4.213
	c-0.498,1.529-1.245,3.005-2.24,4.427l2.453,3.573c0.32,0.356,0.542,0.765,0.667,1.227c0.124,0.462,0.124,0.925,0,1.387
	c-0.125,0.462-0.347,0.871-0.667,1.227L42.36,45.4c-0.533,0.497-1.183,0.747-1.947,0.747c-0.765,0-1.413-0.249-1.947-0.747
	l-4.16-2.827c-1.422,0.675-2.507,1.155-3.253,1.44v4.32c0,0.747-0.267,1.378-0.8,1.893C29.72,50.742,29.08,51,28.333,51H27.64h-1.28
	h-0.693c-0.747,0-1.387-0.258-1.92-0.773c-0.533-0.516-0.8-1.165-0.8-1.947v-4.267c-0.747-0.285-1.832-0.765-3.253-1.44l-4.16,2.773
	c-0.533,0.533-1.182,0.8-1.947,0.8c-0.765,0-1.396-0.249-1.893-0.747l-1.92-1.867C9.204,43,8.92,42.369,8.92,41.64
	c0-0.728,0.284-1.378,0.853-1.947l2.4-3.627c-0.996-1.387-1.725-2.844-2.187-4.373H5.72c-0.356,0-0.703-0.071-1.04-0.213
	c-0.338-0.142-0.632-0.337-0.88-0.587c-0.249-0.248-0.445-0.533-0.587-0.853C3.071,29.72,3,29.382,3,29.027V26.36
	c0-0.747,0.267-1.378,0.8-1.893c0.533-0.515,1.173-0.773,1.92-0.773h3.893c0.355-1.6,0.96-3.147,1.813-4.64l-2.667-3.84
	c-0.533-0.533-0.8-1.164-0.8-1.893c0-0.728,0.267-1.36,0.8-1.893l1.973-1.867c0.497-0.533,1.128-0.8,1.893-0.8
	c0.764,0,1.413,0.267,1.947,0.8l3.893,2.507c1.351-0.818,2.827-1.422,4.427-1.813V5.667c0-0.747,0.258-1.378,0.773-1.893
	C24.182,3.258,24.813,3,25.56,3h0.8h1.28H28.387z M32.067,31.507c1.208-1.262,1.813-2.764,1.813-4.507
	c0-1.742-0.605-3.244-1.813-4.507c-1.209-1.262-2.685-1.964-4.427-2.107l-0.587-0.053h-0.107l-0.587,0.053
	c-1.743,0.142-3.218,0.845-4.427,2.107C20.724,23.756,20.12,25.258,20.12,27c0,1.743,0.604,3.245,1.813,4.507
	c1.208,1.262,2.684,1.965,4.427,2.107l0.587,0.053h0.107l0.587-0.053C29.382,33.472,30.857,32.769,32.067,31.507z"/>
</svg>
