<?xml version="1.0" encoding="utf-8"?>
<!-- Generator: Adobe Illustrator 17.0.2, SVG Export Plug-In . SVG Version: 6.00 Build 0)  -->
<!DOCTYPE svg PUBLIC "-//W3C//DTD SVG 1.1//EN" "http://www.w3.org/Graphics/SVG/1.1/DTD/svg11.dtd">
<svg version="1.1" id="Layer_1" xmlns="http://www.w3.org/2000/svg" xmlns:xlink="http://www.w3.org/1999/xlink" x="0px" y="0px"
	 width="54px" height="54px" viewBox="0 0 54 54" enable-background="new 0 0 54 54" xml:space="preserve">
<path id="bookmark" fill="#B8B8B8" d="M36.333,3c1.92,0,3.288,0.392,4.107,1.173c0.818,0.783,1.227,2.169,1.227,4.16v37.333
	c0,1.173,0,1.884,0,2.133c-0.072,2.098-0.552,3.164-1.44,3.2c-0.747,0-1.689-0.533-2.827-1.6l-2.453-2.72
	c-1.636-1.813-3.316-3.636-5.04-5.467c-1.725-1.831-2.676-2.781-2.853-2.853c-0.107-0.035-0.16-0.071-0.16-0.107
	c0.035-0.071,0.088-0.088,0.16-0.053c0.071,0.036,0.035,0.089-0.107,0.16C26.52,38.502,23.071,42.182,16.6,49.4
	c-1.138,1.067-2.08,1.6-2.827,1.6c-0.249,0-0.453-0.053-0.613-0.16c-0.16-0.107-0.294-0.293-0.4-0.56
	c-0.107-0.267-0.187-0.516-0.24-0.747c-0.053-0.232-0.099-0.569-0.133-1.013c-0.036-0.445-0.053-0.809-0.053-1.093
	c0-0.285,0-0.711,0-1.28c0-0.214,0-0.373,0-0.48V8.333c0-1.92,0.4-3.288,1.2-4.107C14.333,3.409,15.711,3,17.667,3H36.333z"/>
</svg>
