<?xml version="1.0" encoding="utf-8"?>
<!-- Generator: Adobe Illustrator 17.0.1, SVG Export Plug-In . SVG Version: 6.00 Build 0)  -->
<!DOCTYPE svg PUBLIC "-//W3C//DTD SVG 1.1//EN" "http://www.w3.org/Graphics/SVG/1.1/DTD/svg11.dtd">
<svg version="1.1" id="Layer_1" xmlns="http://www.w3.org/2000/svg" xmlns:xlink="http://www.w3.org/1999/xlink" x="0px" y="0px"
	 width="60px" height="60px" viewBox="0 0 60 60" enable-background="new 0 0 60 60" xml:space="preserve">
  
  
<path opacity="0.75" fill="#FFFFFF" d="M30,5C16.215,5,5,16.215,5,30s11.215,25,25,25s25-11.215,25-25S43.785,5,30,5z"/>
<path fill="#00A9E6" d="M30,0C13.431,0,0,13.431,0,30s13.431,30,30,30s30-13.431,30-30S46.569,0,30,0z M30,55
	C16.215,55,5,43.785,5,30S16.215,5,30,5s25,11.215,25,25S43.785,55,30,55z"/>
<polygon fill="#00A9E6" points="22.501,15.489 22.501,44.511 43.499,30 "/>
  

  
</svg>
