<?xml version="1.0" encoding="utf-8"?>
<!-- Generator: Adobe Illustrator 17.0.2, SVG Export Plug-In . SVG Version: 6.00 Build 0)  -->
<!DOCTYPE svg PUBLIC "-//W3C//DTD SVG 1.1//EN" "http://www.w3.org/Graphics/SVG/1.1/DTD/svg11.dtd">
<svg version="1.1" id="Layer_1" xmlns="http://www.w3.org/2000/svg" xmlns:xlink="http://www.w3.org/1999/xlink" x="0px" y="0px"
	 width="54px" height="54px" viewBox="0 0 54 54" enable-background="new 0 0 54 54" xml:space="preserve">
<path id="video" fill="#00A9E6" d="M4.147,40.52C3.382,39.756,3,38.36,3,36.333V17.667c0-1.955,0.391-3.333,1.173-4.133
	c0.782-0.8,2.168-1.2,4.16-1.2H35c1.351,0,2.408,0.178,3.173,0.533c0.764,0.356,1.315,0.907,1.653,1.653
	c0.337,0.747,0.507,1.796,0.507,3.147v8l7.68-12.373c0.675-0.675,1.253-0.987,1.733-0.933s0.898,0.489,1.253,1.307v25.6
	c-0.356,0.783-0.773,1.192-1.253,1.227c-0.48,0.036-1.058-0.284-1.733-0.96l-7.68-11.2v8c0,1.387-0.187,2.462-0.56,3.227
	c-0.373,0.765-0.933,1.307-1.68,1.627c-0.747,0.32-1.778,0.48-3.093,0.48H8.333C6.307,41.667,4.911,41.285,4.147,40.52z"/>
</svg>
